# xmcd CD database file
#
# Track frame offsets:
#	150
#	13967
#	24067
#	35305
#	44445
#	55252
#	66677
#	77010
#	88475
#	100692
#	110555
#	121029
#	130907
#	142087
#	153795
#	165865
#	175602
#	186472
#	197470
#	207912
#
# Disc length: 2946 seconds
#
# Revision: 1
# Processed by: cddbd v1.5.2PL0 Copyright (c) Steve Scherf et al.
# Submitted via: CDex 1.51
#
DISCID=0c0b8014
DTITLE=Frankie Yankovic - Polka's and Waltz's - Polka's and Waltz's
DYEAR=1900
DGENRE=
TTITLE0=Blue Skirt Waltz
TTITLE1=Top of the Hill
TTITLE2=Yankovic's polka
TTITLE3=My Mary Polka
TTITLE4=3 o'clock in the Morning
TTITLE5=Dance Dance Dance
TTITLE6=Just Another Polka
TTITLE7=Beer Barrel Polka
TTITLE8=Whirl-Away Polka
TTITLE9=Suzy Waltz
TTITLE10=You Can't Be True, Dear
TTITLE11=Accordian Man Waltz
TTITLE12=Bar Room Polka
TTITLE13=Baby Doll Polka
TTITLE14=Happy Wanderer
TTITLE15=Milwaukee Polka
TTITLE16=Pennsylvania Polka
TTITLE17=I've got a Date with Molly
TTITLE18=Barbara Polka
TTITLE19=Cleveland the Polka Town
EXTD=
EXTT0=
EXTT1=
EXTT2=
EXTT3=
EXTT4=
EXTT5=
EXTT6=
EXTT7=
EXTT8=
EXTT9=
EXTT10=
EXTT11=
EXTT12=
EXTT13=
EXTT14=
EXTT15=
EXTT16=
EXTT17=
EXTT18=
EXTT19=
PLAYORDER=
